nColumns=19
nRows=67
DataType=double
version=3
OpenSimVersion=4.1
endheader
time	ground_force_1_vx	ground_force_1_vy	ground_force_1_vz	ground_force_1_px	ground_force_1_py	ground_force_1_pz	ground_force_1_mx	ground_force_1_my	ground_force_1_mz	ground_force_2_vx	ground_force_2_vy	ground_force_2_vz	ground_force_2_px	ground_force_2_py	ground_force_2_pz	ground_force_2_mx	ground_force_2_my	ground_force_2_mz
0	-82.7162	447.648	-15.6408	0.130128	0.006	-0.148273	0	-1.73887	0	0	0	0	0.720762	0	-0.170407	0	0	0
0.01	-81.6633	457.478	-15.0213	0.131911	0.006	-0.148125	0	-1.56085	0	0	0	0	0.720762	0	-0.170407	0	0	0
0.02	-80.3311	468.369	-14.3312	0.134286	0.006	-0.147901	0	-1.36414	0	0	0	0	0.720762	0	-0.170407	0	0	0
0.03	-78.6983	480.05	-13.6075	0.136929	0.006	-0.147619	0	-1.15392	0	0	0	0	0.720762	0	-0.170407	0	0	0
0.04	-76.7646	492.207	-12.9079	0.139806	0.006	-0.14727	0	-0.935931	0	0	0	0	0.720762	0	-0.170407	0	0	0
0.05	-74.5615	504.534	-12.2995	0.142893	0.006	-0.146848	0	-0.715444	0	0	0	0	0.720762	0	-0.170407	0	0	0
0.06	-72.1571	516.767	-11.8429	0.146176	0.006	-0.146349	0	-0.496736	0	0	0	0	0.720762	0	-0.170407	0	0	0
0.07	-69.6524	528.715	-11.5734	0.149657	0.006	-0.145772	0	-0.283175	0	0	0	0	0.720762	0	-0.170407	0	0	0
0.08	-67.163	540.277	-11.4896	0.153344	0.006	-0.145122	0	-0.077918	0	0	0	0	0.720762	0	-0.170407	0	0	0
0.09	-64.7962	551.409	-11.553	0.157242	0.006	-0.144412	0	0.115206	0	0	0	0	0.720762	0	-0.170407	0	0	0
0.1	-62.6369	562.1	-11.6994	0.161354	0.006	-0.143653	0	0.290964	0	0	0	0	0.720762	0	-0.170407	0	0	0
0.11	-60.7379	572.338	-11.8582	0.16567	0.006	-0.142864	0	0.442133	0	0	0	0	0.720762	0	-0.170407	0	0	0
0.12	-59.1153	582.084	-11.9716	0.170171	0.006	-0.14206	0	0.559739	0	0	0	0	0.720762	0	-0.170407	0	0	0
0.13	-57.7503	591.284	-12.0028	0.174825	0.006	-0.141256	0	0.634155	0	0	0	0	0.720762	0	-0.170407	0	0	0
0.14	-56.5972	599.872	-11.9366	0.179593	0.006	-0.140468	0	0.656617	0	0	0	0	0.720762	0	-0.170407	0	0	0
0.15	-55.5904	607.783	-11.774	0.184433	0.006	-0.139708	0	0.620543	0	0	0	0	0.720762	0	-0.170407	0	0	0
0.16	-54.6589	614.956	-11.5245	0.189302	0.006	-0.138986	0	0.522299	0	0	0	0	0.720762	0	-0.170407	0	0	0
0.17	-53.741	621.355	-11.199	0.194159	0.006	-0.13831	0	0.361491	0	0	0	0	0.720762	0	-0.170407	0	0	0
0.18	-52.7899	626.965	-10.8092	0.198969	0.006	-0.137683	0	0.140792	0	0	0	0	0.720762	0	-0.170407	0	0	0
0.19	-51.7748	631.781	-10.3677	0.203703	0.006	-0.137108	0	-0.134452	0	0	0	0	0.720762	0	-0.170407	0	0	0
0.2	-50.6775	635.802	-9.88453	0.208338	0.006	-0.136583	0	-0.456694	0	0	0	0	0.720762	0	-0.170407	0	0	0
0.21	-49.4877	639.034	-9.36605	0.212858	0.006	-0.136109	0	-0.816872	0	0	0	0	0.720762	0	-0.170407	0	0	0
0.22	-48.1993	641.495	-8.8166	0.217252	0.006	-0.135683	0	-1.20503	0	0	0	0	0.720762	0	-0.170407	0	0	0
0.23	-46.8102	643.213	-8.24182	0.221514	0.006	-0.135303	0	-1.61101	0	0	0	0	0.720762	0	-0.170407	0	0	0
0.24	-45.3239	644.234	-7.65173	0.22564	0.006	-0.134967	0	-2.02509	0	0	0	0	0.720762	0	-0.170407	0	0	0
0.25	-43.7489	644.624	-7.06193	0.229628	0.006	-0.134669	0	-2.43826	0	0	0	0	0.720762	0	-0.170407	0	0	0
0.26	-42.0985	644.463	-6.49254	0.233478	0.006	-0.134406	0	-2.84233	0	0	0	0	0.720762	0	-0.170407	0	0	0
0.27	-40.3912	643.833	-5.96506	0.23719	0.006	-0.134172	0	-3.23015	0	0	0	0	0.720762	0	-0.170407	0	0	0
0.28	-38.6475	642.811	-5.49921	0.240763	0.006	-0.133961	0	-3.59575	0	0	0	0	0.720762	0	-0.170407	0	0	0
0.29	-36.8866	641.464	-5.11004	0.244196	0.006	-0.133769	0	-3.93451	0	0	0	0	0.720762	0	-0.170407	0	0	0
0.3	-35.1217	639.839	-4.80593	0.247486	0.006	-0.133592	0	-4.24352	0	0	0	0	0.720762	0	-0.170407	0	0	0
0.31	-33.3578	637.969	-4.58773	0.250627	0.006	-0.133428	0	-4.52158	0	0	0	0	0.720762	0	-0.170407	0	0	0
0.32	-31.5909	635.883	-4.45117	0.253611	0.006	-0.133274	0	-4.76886	0	0	0	0	0.720762	0	-0.170407	0	0	0
0.33	-29.8099	633.614	-4.39242	0.256429	0.006	-0.133127	0	-4.9862	0	0	0	0	0.720762	0	-0.170407	0	0	0
0.34	-27.9995	631.206	-4.41301	0.259071	0.006	-0.132986	0	-5.17436	0	0	0	0	0.720762	0	-0.170407	0	0	0
0.35	-26.1441	628.699	-4.52174	0.261533	0.006	-0.132844	0	-5.33377	0	0	0	0	0.720762	0	-0.170407	0	0	0
0.36	-24.2289	626.128	-4.73365	0.263813	0.006	-0.132695	0	-5.4644	0	0	0	0	0.720762	0	-0.170407	0	0	0
0.37	-22.2406	623.516	-5.06597	0.265913	0.006	-0.132532	0	-5.56617	0	0	0	0	0.720762	0	-0.170407	0	0	0
0.38	-20.1655	620.884	-5.5331	0.267842	0.006	-0.13235	0	-5.63927	0	0	0	0	0.720762	0	-0.170407	0	0	0
0.39	-17.9882	618.258	-6.14331	0.26961	0.006	-0.132144	0	-5.68458	0	0	0	0	0.720762	0	-0.170407	0	0	0
0.4	-15.6909	615.674	-6.89844	0.271228	0.006	-0.131913	0	-5.70389	0	0	0	0	0.720762	0	-0.170407	0	0	0
0.41	-13.2567	613.187	-7.79464	0.272709	0.006	-0.13166	0	-5.69987	0	0	0	0	0.720762	0	-0.170407	0	0	0
0.42	-10.6719	610.869	-8.82363	0.274065	0.006	-0.131388	0	-5.67593	0	0	0	0	0.720762	0	-0.170407	0	0	0
0.43	-7.92944	608.813	-9.974	0.27531	0.006	-0.131108	0	-5.63593	0	0	0	0	0.720762	0	-0.170407	0	0	0
0.44	-5.03149	607.127	-11.232	0.276456	0.006	-0.130831	0	-5.58404	0	0	0	0	0.720762	0	-0.170407	0	0	0
0.45	-1.98887	605.938	-12.5811	0.277519	0.006	-0.130568	0	-5.5246	0	0	0	0	0.720762	0	-0.170407	0	0	0
0.46	1.18337	605.388	-14.002	0.278511	0.006	-0.130335	0	-5.46199	0	0	0	0	0.720762	0	-0.170407	0	0	0
0.47	4.47228	605.618	-15.473	0.279445	0.006	-0.130145	0	-5.4003	0	0	0	0	0.720762	0	-0.170407	0	0	0
0.48	7.87392	606.756	-16.9719	0.280333	0.006	-0.13001	0	-5.34288	0	0	0	0	0.720762	0	-0.170407	0	0	0
0.49	11.3994	608.894	-18.4807	0.281182	0.006	-0.129937	0	-5.29164	0	0	0	0	0.720762	0	-0.170407	0	0	0
0.5	15.0751	612.073	-19.9895	0.282	0.006	-0.129929	0	-5.24642	0	0	0	0	0.720762	0	-0.170407	0	0	0
0.51	18.938	616.268	-21.4975	0.282792	0.006	-0.129981	0	-5.20487	0	0	0	0	0.720762	0	-0.170407	0	0	0
0.52	23.0284	621.387	-23.0119	0.283561	0.006	-0.130087	0	-5.16263	0	0	0	0	0.720762	0	-0.170407	0	0	0
0.53	27.3833	627.262	-24.5424	0.284312	0.006	-0.130234	0	-5.1139	0	0	0	0	0.720762	0	-0.170407	0	0	0
0.54	32.0296	633.657	-26.0961	0.285048	0.006	-0.130409	0	-5.05209	0	0	0	0	0.720762	0	-0.170407	0	0	0
0.55	36.9798	640.282	-27.6707	0.285776	0.006	-0.130598	0	-4.97064	0	0	0	0	0.720762	0	-0.170407	0	0	0
0.56	42.2303	646.805	-29.248	0.286499	0.006	-0.130789	0	-4.86398	0	0	0	0	0.720762	0	-0.170407	0	0	0
0.57	47.7625	652.87	-30.7893	0.287222	0.006	-0.130973	0	-4.72844	0	0	0	0	0.720762	0	-0.170407	0	0	0
0.58	53.5427	658.102	-32.2367	0.287949	0.006	-0.131141	0	-4.56266	0	0	0	0	0.720762	0	-0.170407	0	0	0
0.59	59.5225	662.12	-33.5194	0.288682	0.006	-0.131288	0	-4.3677	0	0	0	0	0.720762	0	-0.170407	0	0	0
0.6	65.6387	664.542	-34.5606	0.289424	0.006	-0.131411	0	-4.14674	0	0	0	0	0.720762	0	-0.170407	0	0	0
0.61	71.8108	664.995	-35.2855	0.290176	0.006	-0.131511	0	-3.90452	0	0	0	0	0.720762	0	-0.170407	0	0	0
0.62	77.9385	663.112	-35.6268	0.29094	0.006	-0.131587	0	-3.64682	0	0	0	0	0.720762	0	-0.170407	0	0	0
0.63	83.8995	658.544	-35.529	0.29172	0.006	-0.131641	0	-3.38012	0	-3.16223	20.931	-6.15715	0.720762	0.006	-0.170407	0	-0.033216	0
0.64	89.5494	650.972	-34.9516	0.292522	0.006	-0.131679	0	-3.11111	0	-5.66086	36.7987	-7.41341	0.748916	0.006	-0.191681	0	0.123982	0
0.65	94.7238	640.125	-33.8742	0.293355	0.006	-0.131704	0	-2.84591	0	-8.91783	56.408	-8.79725	0.765294	0.006	-0.20322	0	0.22369	0
0.66	99.2444	625.793	-32.3007	0.29423	0.006	-0.131722	0	-2.58924	0	-13.0102	79.8768	-10.2596	0.775379	0.006	-0.209662	0	0.313134	0
